# xmcd
#
# Track frame offsets: 
#        150
#        15162
#        36994
#        55121
#        73485
#        88287
#        107022
#        128316
#        146464
#        165737
#        184116
#        211653
#        223621
#
# Disc length: 3210 seconds
#
# Revision: 0
# Processed by: cddbd v1.5.2PL0 Copyright (c) Steve Scherf et al.
# Submitted via: ExactAudioCopy v0.99pb4
#
DISCID=b20c880d
DTITLE=John Mayer - Continuum
DYEAR=2008
DGENRE=Folk/Pop
TTITLE0=Waiting On The World To Change
TTITLE1=I Don't Trust Myself (With Loving You)
TTITLE2=Belief
TTITLE3=Gravity
TTITLE4=The Heart Of Life
TTITLE5=Vultures
TTITLE6=Stop This Train
TTITLE7=Slow Dancing In A Burning Room
TTITLE8=Bold As Love
TTITLE9=Dreaming With A Broken Heart
TTITLE10=In Repair
TTITLE11=I'm Gonna Find You Another
TTITLE12=Say
EXTD=
EXTT0=
EXTT1=
EXTT2=
EXTT3=
EXTT4=
EXTT5=
EXTT6=
EXTT7=
EXTT8=
EXTT9=
EXTT10=
EXTT11=
EXTT12=
PLAYORDER=
